# This file uses centimeters as units for non-parametric coordinates.

mtllib X.mtl
g default
v 1.831169 9.385066 0.000000
v 0.253636 9.385066 0.000000
v 3.213247 4.709351 0.000000
v 0.101429 0.000000 0.000000
v 1.364675 0.000000 0.000000
v 3.827922 3.717403 0.000000
v 6.209351 0.000000 0.000000
v 7.787014 0.000000 0.000000
v 4.713247 4.855195 0.000000
v 7.711040 9.385066 0.000000
v 6.455455 9.385066 0.000000
v 4.087273 5.853247 0.000000
v 1.831169 9.385066 0.625000
v 0.253636 9.385066 0.625000
v 3.213247 4.709351 0.625000
v 0.101429 0.000000 0.625000
v 1.364675 0.000000 0.625000
v 3.827922 3.717403 0.625000
v 6.209351 0.000000 0.625000
v 7.787014 0.000000 0.625000
v 4.713247 4.855195 0.625000
v 7.711040 9.385066 0.625000
v 6.455455 9.385066 0.625000
v 4.087273 5.853247 0.625000
v 1.831169 9.385066 1.250000
v 0.253636 9.385066 1.250000
v 3.213247 4.709351 1.250000
v 0.101429 0.000000 1.250000
v 1.364675 0.000000 1.250000
v 3.827922 3.717403 1.250000
v 6.209351 0.000000 1.250000
v 7.787014 0.000000 1.250000
v 4.713247 4.855195 1.250000
v 7.711040 9.385066 1.250000
v 6.455455 9.385066 1.250000
v 4.087273 5.853247 1.250000
v 1.831169 9.385066 1.875000
v 0.253636 9.385066 1.875000
v 3.213247 4.709351 1.875000
v 0.101429 0.000000 1.875000
v 1.364675 0.000000 1.875000
v 3.827922 3.717403 1.875000
v 6.209351 0.000000 1.875000
v 7.787014 0.000000 1.875000
v 4.713247 4.855195 1.875000
v 7.711040 9.385066 1.875000
v 6.455455 9.385066 1.875000
v 4.087273 5.853247 1.875000
v 1.831169 9.385066 2.500000
v 0.253636 9.385066 2.500000
v 3.213247 4.709351 2.500000
v 0.101429 0.000000 2.500000
v 1.364675 0.000000 2.500000
v 3.827922 3.717403 2.500000
v 6.209351 0.000000 2.500000
v 7.787014 0.000000 2.500000
v 4.713247 4.855195 2.500000
v 7.711040 9.385066 2.500000
v 6.455455 9.385066 2.500000
v 4.087273 5.853247 2.500000
vt 0.395216 0.812715
vt 0.395216 0.896107
vt 0.362177 0.896107
vt 0.362177 0.812715
vt 0.329138 0.896107
vt 0.329138 0.812715
vt 0.395216 0.693452
vt 0.362177 0.693452
vt 0.296099 0.896107
vt 0.296099 0.812715
vt 0.329138 0.693452
vt 0.395216 0.568264
vt 0.362177 0.568264
vt 0.263060 0.896107
vt 0.263060 0.812715
vt 0.296099 0.693452
vt 0.329138 0.568264
vt 0.395216 0.501890
vt 0.362177 0.501890
vt 0.263060 0.693452
vt 0.296099 0.568264
vt 0.329138 0.501890
vt 0.263060 0.568264
vt 0.296099 0.501890
vt 0.263060 0.501890
vt 0.401028 0.908169
vt 0.401028 0.841391
vt 0.434067 0.841391
vt 0.434067 0.908169
vt 0.401028 0.711178
vt 0.434067 0.711178
vt 0.467106 0.841391
vt 0.467106 0.908169
vt 0.401028 0.585289
vt 0.434067 0.585289
vt 0.467106 0.711178
vt 0.500145 0.841391
vt 0.500145 0.908169
vt 0.401028 0.501890
vt 0.434067 0.501890
vt 0.467106 0.585289
vt 0.500145 0.711178
vt 0.533184 0.841391
vt 0.533184 0.908169
vt 0.467106 0.501890
vt 0.500145 0.585289
vt 0.533184 0.711178
vt 0.500145 0.501890
vt 0.533184 0.585289
vt 0.533184 0.501890
vt 0.212588 0.188693
vt 0.337776 0.001992
vt 0.404150 0.001992
vt 0.245679 0.241452
vt 0.408166 0.498110
vt 0.324767 0.498110
vt 0.198878 0.301599
vt 0.068665 0.498110
vt 0.001887 0.498110
vt 0.166385 0.249162
vt 0.009933 0.001992
vt 0.093325 0.001992
vt 0.630433 0.998008
vt 0.547041 0.998008
vt 0.703493 0.750838
vt 0.538995 0.501890
vt 0.605773 0.501890
vt 0.735986 0.698401
vt 0.861875 0.501890
vt 0.945274 0.501890
vt 0.782787 0.758548
vt 0.941258 0.998008
vt 0.874884 0.998008
vt 0.749696 0.811307
vt 0.415569 0.498110
vt 0.415569 0.250940
vt 0.448608 0.250940
vt 0.448608 0.498110
vt 0.415569 0.001992
vt 0.448608 0.001992
vt 0.481647 0.250940
vt 0.481647 0.498110
vt 0.481647 0.001992
vt 0.514686 0.250940
vt 0.514686 0.498110
vt 0.514686 0.001992
vt 0.547725 0.250940
vt 0.547725 0.498110
vt 0.547725 0.001992
vt 0.686173 0.001992
vt 0.686173 0.258650
vt 0.653134 0.258650
vt 0.653134 0.001992
vt 0.686173 0.498110
vt 0.653134 0.498110
vt 0.620095 0.258650
vt 0.620095 0.001992
vt 0.620095 0.498110
vt 0.587056 0.258650
vt 0.587056 0.001992
vt 0.587056 0.498110
vt 0.554017 0.258650
vt 0.554017 0.001992
vt 0.554017 0.498110
vn 0.000000 0.000000 -1.000000
vn 0.000000 0.000000 -1.000000
vn 0.000000 0.000000 -1.000000
vn 0.000000 0.000000 -1.000000
vn 0.000000 0.000000 -1.000000
vn 0.000000 0.000000 -1.000000
vn 0.000000 0.000000 -1.000000
vn 0.000000 0.000000 -1.000000
vn 0.000000 0.000000 -1.000000
vn 0.000000 0.000000 -1.000000
vn 0.000000 0.000000 -1.000000
vn 0.000000 0.000000 -1.000000
vn 0.000000 1.000000 0.000000
vn 0.000000 1.000000 0.000000
vn 0.000000 1.000000 0.000000
vn 0.000000 1.000000 0.000000
vn -0.844956 -0.534836 0.000000
vn -0.844956 -0.534836 0.000000
vn -0.844956 -0.534836 0.000000
vn -0.844956 -0.534836 0.000000
vn -0.834312 0.551292 0.000000
vn -0.834312 0.551292 0.000000
vn -0.834312 0.551292 0.000000
vn -0.834312 0.551292 0.000000
vn 0.000000 -1.000000 0.000000
vn 0.000000 -1.000000 0.000000
vn 0.000000 -1.000000 0.000000
vn 0.000000 -1.000000 0.000000
vn 0.833602 -0.552366 0.000000
vn 0.833602 -0.552366 0.000000
vn 0.833602 -0.552366 0.000000
vn 0.833602 -0.552366 0.000000
vn -0.842036 -0.539422 0.000000
vn -0.842036 -0.539422 0.000000
vn -0.842036 -0.539422 0.000000
vn -0.842036 -0.539422 0.000000
vn 0.000000 -1.000000 0.000000
vn 0.000000 -1.000000 0.000000
vn 0.000000 -1.000000 0.000000
vn 0.000000 -1.000000 0.000000
vn 0.844913 0.534904 0.000000
vn 0.844913 0.534904 0.000000
vn 0.844913 0.534904 0.000000
vn 0.844913 0.534904 0.000000
vn 0.833925 -0.551878 0.000000
vn 0.833925 -0.551878 0.000000
vn 0.833925 -0.551878 0.000000
vn 0.833925 -0.551878 0.000000
vn 0.000000 1.000000 0.000000
vn 0.000000 1.000000 0.000000
vn 0.000000 1.000000 0.000000
vn 0.000000 1.000000 0.000000
vn -0.830567 0.556918 0.000000
vn -0.830567 0.556918 0.000000
vn -0.830567 0.556918 0.000000
vn -0.830567 0.556918 0.000000
vn 0.842733 0.538332 0.000000
vn 0.842733 0.538332 0.000000
vn 0.842733 0.538332 0.000000
vn 0.842733 0.538332 0.000000
vn 0.000000 1.000000 0.000000
vn 0.000000 1.000000 0.000000
vn -0.844956 -0.534836 0.000000
vn -0.844956 -0.534836 0.000000
vn -0.834312 0.551292 0.000000
vn -0.834312 0.551292 0.000000
vn 0.000000 -1.000000 0.000000
vn 0.000000 -1.000000 0.000000
vn 0.833602 -0.552366 0.000000
vn 0.833602 -0.552366 0.000000
vn -0.842036 -0.539422 0.000000
vn -0.842036 -0.539422 0.000000
vn 0.000000 -1.000000 0.000000
vn 0.000000 -1.000000 0.000000
vn 0.844913 0.534904 0.000000
vn 0.844913 0.534904 0.000000
vn 0.833925 -0.551878 0.000000
vn 0.833925 -0.551878 0.000000
vn 0.000000 1.000000 0.000000
vn 0.000000 1.000000 0.000000
vn -0.830567 0.556918 0.000000
vn -0.830567 0.556918 0.000000
vn 0.842733 0.538332 0.000000
vn 0.842733 0.538332 0.000000
vn 0.000000 1.000000 0.000000
vn 0.000000 1.000000 0.000000
vn -0.844956 -0.534836 0.000000
vn -0.844956 -0.534836 0.000000
vn -0.834312 0.551292 0.000000
vn -0.834312 0.551292 0.000000
vn 0.000000 -1.000000 0.000000
vn 0.000000 -1.000000 0.000000
vn 0.833602 -0.552366 0.000000
vn 0.833602 -0.552366 0.000000
vn -0.842036 -0.539422 0.000000
vn -0.842036 -0.539422 0.000000
vn 0.000000 -1.000000 0.000000
vn 0.000000 -1.000000 0.000000
vn 0.844913 0.534904 0.000000
vn 0.844913 0.534904 0.000000
vn 0.833925 -0.551878 0.000000
vn 0.833925 -0.551878 0.000000
vn 0.000000 1.000000 0.000000
vn 0.000000 1.000000 0.000000
vn -0.830567 0.556918 0.000000
vn -0.830567 0.556918 0.000000
vn 0.842733 0.538332 0.000000
vn 0.842733 0.538332 0.000000
vn 0.000000 1.000000 0.000000
vn 0.000000 1.000000 0.000000
vn -0.844956 -0.534836 0.000000
vn -0.844956 -0.534836 0.000000
vn -0.834312 0.551292 0.000000
vn -0.834312 0.551292 0.000000
vn 0.000000 -1.000000 0.000000
vn 0.000000 -1.000000 0.000000
vn 0.833602 -0.552366 0.000000
vn 0.833602 -0.552366 0.000000
vn -0.842036 -0.539422 0.000000
vn -0.842036 -0.539422 0.000000
vn 0.000000 -1.000000 0.000000
vn 0.000000 -1.000000 0.000000
vn 0.844913 0.534904 0.000000
vn 0.844913 0.534904 0.000000
vn 0.833925 -0.551878 0.000000
vn 0.833925 -0.551878 0.000000
vn 0.000000 1.000000 0.000000
vn 0.000000 1.000000 0.000000
vn -0.830567 0.556918 0.000000
vn -0.830567 0.556918 0.000000
vn 0.842733 0.538332 0.000000
vn 0.842733 0.538332 0.000000
vn 0.000000 0.000000 1.000000
vn 0.000000 0.000000 1.000000
vn 0.000000 0.000000 1.000000
vn 0.000000 0.000000 1.000000
vn 0.000000 0.000000 1.000000
vn 0.000000 0.000000 1.000000
vn 0.000000 0.000000 1.000000
vn 0.000000 0.000000 1.000000
vn 0.000000 0.000000 1.000000
vn 0.000000 0.000000 1.000000
vn 0.000000 0.000000 1.000000
vn 0.000000 0.000000 1.000000
s off
g typeMesh1
usemtl typeStandardSurfaceSG
f 12/51/1 11/52/2 10/53/3 9/54/4 8/55/5 7/56/6 6/57/7 5/58/8 4/59/9 3/60/10 2/61/11 1/62/12
s 1
f 1/1/13 2/2/14 14/3/15 13/4/16
s 2
f 2/75/17 3/76/18 15/77/19 14/78/20
s 3
f 3/76/21 4/79/22 16/80/23 15/77/24
s 4
f 4/26/25 5/27/26 17/28/27 16/29/28
s 5
f 5/27/29 6/30/30 18/31/31 17/28/32
s 6
f 6/30/33 7/34/34 19/35/35 18/31/36
s 7
f 7/34/37 8/39/38 20/40/39 19/35/40
s 8
f 8/90/41 9/91/42 21/92/43 20/93/44
s 9
f 9/91/45 10/94/46 22/95/47 21/92/48
s 10
f 10/18/49 11/12/50 23/13/51 22/19/52
s 11
f 11/12/53 12/7/54 24/8/55 23/13/56
s 12
f 12/7/57 1/1/58 13/4/59 24/8/60
s 1
f 13/4/16 14/3/15 26/5/61 25/6/62
s 2
f 14/78/20 15/77/19 27/81/63 26/82/64
s 3
f 15/77/24 16/80/23 28/83/65 27/81/66
s 4
f 16/29/28 17/28/27 29/32/67 28/33/68
s 5
f 17/28/32 18/31/31 30/36/69 29/32/70
s 6
f 18/31/36 19/35/35 31/41/71 30/36/72
s 7
f 19/35/40 20/40/39 32/45/73 31/41/74
s 8
f 20/93/44 21/92/43 33/96/75 32/97/76
s 9
f 21/92/48 22/95/47 34/98/77 33/96/78
s 10
f 22/19/52 23/13/51 35/17/79 34/22/80
s 11
f 23/13/56 24/8/55 36/11/81 35/17/82
s 12
f 24/8/60 13/4/59 25/6/83 36/11/84
s 1
f 25/6/62 26/5/61 38/9/85 37/10/86
s 2
f 26/82/64 27/81/63 39/84/87 38/85/88
s 3
f 27/81/66 28/83/65 40/86/89 39/84/90
s 4
f 28/33/68 29/32/67 41/37/91 40/38/92
s 5
f 29/32/70 30/36/69 42/42/93 41/37/94
s 6
f 30/36/72 31/41/71 43/46/95 42/42/96
s 7
f 31/41/74 32/45/73 44/48/97 43/46/98
s 8
f 32/97/76 33/96/75 45/99/99 44/100/100
s 9
f 33/96/78 34/98/77 46/101/101 45/99/102
s 10
f 34/22/80 35/17/79 47/21/103 46/24/104
s 11
f 35/17/82 36/11/81 48/16/105 47/21/106
s 12
f 36/11/84 25/6/83 37/10/107 48/16/108
s 1
f 37/10/86 38/9/85 50/14/109 49/15/110
s 2
f 38/85/88 39/84/87 51/87/111 50/88/112
s 3
f 39/84/90 40/86/89 52/89/113 51/87/114
s 4
f 40/38/92 41/37/91 53/43/115 52/44/116
s 5
f 41/37/94 42/42/93 54/47/117 53/43/118
s 6
f 42/42/96 43/46/95 55/49/119 54/47/120
s 7
f 43/46/98 44/48/97 56/50/121 55/49/122
s 8
f 44/100/100 45/99/99 57/102/123 56/103/124
s 9
f 45/99/102 46/101/101 58/104/125 57/102/126
s 10
f 46/24/104 47/21/103 59/23/127 58/25/128
s 11
f 47/21/106 48/16/105 60/20/129 59/23/130
s 12
f 48/16/108 37/10/107 49/15/131 60/20/132
s off
f 49/63/133 50/64/134 51/65/135 52/66/136 53/67/137 54/68/138 55/69/139 56/70/140 57/71/141 58/72/142 59/73/143 60/74/144
